<svg xmlns="http://www.w3.org/2000/svg" viewBox="0 0 500 500">
  <path class="cls-0" d="M 323.026 96.588 L 255.626 96.588 C 252.026 96.588 249.326 94.488 247.326 90.988 C 245.326 87.488 241.926 82.388 235.126 82.388 L 201.126 82.388 C 193.126 82.288 186.226 89.488 186.226 97.888 L 186.226 198.088 C 186.326 205.288 192.126 212.888 200.126 212.988 L 324.226 212.988 C 331.626 212.988 338.126 207.388 338.226 197.888 L 338.226 112.488 C 338.226 103.688 331.426 96.588 323.026 96.588 M 333.826 197.088 C 333.826 202.588 329.326 206.988 323.826 206.988 L 200.326 206.988 C 195.226 206.988 190.426 202.888 190.426 197.088 L 190.426 98.388 C 190.526 92.688 195.126 87.188 201.426 87.188 L 235.326 87.188 C 239.826 87.188 241.826 89.688 243.326 92.288 C 246.326 97.388 249.926 100.988 255.126 101.088 L 323.026 101.088 C 328.326 101.288 333.826 105.888 333.826 112.488" style="fill: rgb(9, 42, 96); stroke-width: 1;"></path>
  <g transform="matrix(0.978967, 0, 0, 0.978967, 5.800471, 6.232132)" style="">
    <g style="" transform="matrix(1.084844, 0, 0, 1.108624, -23.897034, -16.360943)">
      <path class="cls-2" d="M 300.726 136.988 C 291.526 129.188 280.326 123.088 265.326 122.788 L 265.326 148.488 C 270.626 148.688 276.526 150.788 282.426 154.388 L 300.726 136.988 Z" style="fill: rgb(93, 147, 255); stroke-width: 1;"></path>
      <path class="cls-3" d="M 265.226 122.788 C 274.926 122.788 286.226 125.288 300.726 136.888 L 282.526 154.688 C 277.826 151.688 272.726 149.588 265.326 148.888 L 265.226 122.788 Z" style="fill: none; stroke: rgb(9, 42, 96); stroke-linejoin: round; stroke-width: 4.41;"></path>
    </g>
    <g style="" transform="matrix(1.084844, 0, 0, 1.108624, -23.897034, -16.360943)">
      <path class="cls-2" d="M 304.726 140.888 L 286.626 158.288 C 290.526 162.688 294.526 171.388 294.326 178.588 L 320.326 178.588 C 319.626 163.388 314.326 151.088 304.726 140.888 Z" style="fill: rgb(93, 147, 255); stroke-width: 1;"></path>
      <path class="cls-3" d="M 304.726 140.988 L 286.726 158.388 C 290.326 162.988 294.126 169.888 294.426 178.488 L 320.426 178.488 C 319.826 164.288 314.526 151.088 304.726 140.988 Z" style="fill: none; stroke: rgb(9, 42, 96); stroke-linejoin: round; stroke-width: 4.41;"></path>
    </g>
    <g style="" transform="matrix(1.084844, 0, 0, 1.108624, -23.897034, -16.360943)">
      <path class="cls-2" d="M 215.926 148.888 C 211.226 156.088 207.426 165.788 207.226 178.388 L 232.026 178.588 C 232.226 173.988 233.326 168.488 236.526 163.488 L 215.926 148.888 Z" style="fill: rgb(93, 147, 255); stroke-width: 1;"></path>
      <g transform="matrix(1, 0, 0, 1, -1, 0)">
        <path class="cls-3" d="M 215.926 148.888 L 236.526 163.588 C 234.626 166.888 232.826 171.788 232.226 178.488 L 207.226 178.488 C 207.226 168.588 210.626 156.388 215.926 148.888 Z" style="fill: none; stroke: rgb(9, 42, 96); stroke-linejoin: round; stroke-width: 4.41;"></path>
      </g>
    </g>
    <g transform="matrix(1.084844, 0, 0, 1.108624, -24.981878, -16.360943)" style="">
      <path class="cls-2" d="M 260.326 122.788 C 245.926 122.988 231.526 130.288 219.326 144.288 L 240.126 159.388 C 244.626 153.788 251.826 149.688 260.326 148.788 L 260.326 122.788 Z" style="fill: rgb(93, 147, 255); stroke-width: 1;"></path>
      <path class="cls-3" d="M 260.426 122.788 C 248.326 122.988 235.426 127.788 219.226 144.388 L 240.126 159.388 C 243.726 154.788 250.426 150.388 260.426 148.888 L 260.426 122.788 Z" style="fill: none; stroke: rgb(9, 42, 96); stroke-linejoin: round; stroke-width: 4.41;"></path>
    </g>
  </g>
</svg>
